<svg width="24" height="24" viewBox="0 0 24 24" fill="none" xmlns="http://www.w3.org/2000/svg">
<path d="M12.0001 2.39999C10.0905 2.39999 8.25918 3.15856 6.90892 4.50883C5.55866 5.85909 4.80009 7.69044 4.80009 9.59999V13.9032L3.95169 14.7516C3.78391 14.9194 3.66967 15.1332 3.62339 15.366C3.5771 15.5987 3.60087 15.8399 3.69167 16.0592C3.78248 16.2784 3.93624 16.4658 4.13354 16.5977C4.33083 16.7295 4.56279 16.7999 4.80009 16.8H19.2001C19.4374 16.7999 19.6693 16.7295 19.8666 16.5977C20.0639 16.4658 20.2177 16.2784 20.3085 16.0592C20.3993 15.8399 20.4231 15.5987 20.3768 15.366C20.3305 15.1332 20.2163 14.9194 20.0485 14.7516L19.2001 13.9032V9.59999C19.2001 7.69044 18.4415 5.85909 17.0913 4.50883C15.741 3.15856 13.9096 2.39999 12.0001 2.39999ZM12.0001 21.6C11.0453 21.6 10.1296 21.2207 9.4545 20.5456C8.77937 19.8704 8.40009 18.9548 8.40009 18H15.6001C15.6001 18.9548 15.2208 19.8704 14.5457 20.5456C13.8705 21.2207 12.9549 21.6 12.0001 21.6Z" fill="black"/>
</svg>
