<svg width="24" height="24" viewBox="0 0 24 24" fill="none" xmlns="http://www.w3.org/2000/svg">
<path fill-rule="evenodd" clip-rule="evenodd" d="M3.8065 6.20641C4.70663 5.30655 5.92731 4.80104 7.2001 4.80104C8.47289 4.80104 9.69357 5.30655 10.5937 6.20641L12.0001 7.61161L13.4065 6.20641C13.8493 5.74796 14.3789 5.38229 14.9646 5.13072C15.5502 4.87916 16.18 4.74675 16.8174 4.74121C17.4547 4.73567 18.0868 4.85712 18.6767 5.09847C19.2666 5.33982 19.8025 5.69623 20.2532 6.14692C20.7039 6.5976 21.0603 7.13353 21.3016 7.72343C21.543 8.31333 21.6644 8.9454 21.6589 9.58274C21.6534 10.2201 21.5209 10.8499 21.2694 11.4356C21.0178 12.0212 20.6521 12.5508 20.1937 12.9936L12.0001 21.1884L3.8065 12.9936C2.90664 12.0935 2.40112 10.8728 2.40112 9.60001C2.40112 8.32722 2.90664 7.10654 3.8065 6.20641Z" fill="black"/>
</svg>
