<svg width="24" height="24" viewBox="0 0 24 24" fill="none" xmlns="http://www.w3.org/2000/svg">
<path d="M12.8484 2.75161C12.6234 2.52665 12.3182 2.40027 12 2.40027C11.6819 2.40027 11.3767 2.52665 11.1516 2.75161L2.75165 11.1516C2.53306 11.3779 2.41211 11.6811 2.41484 11.9957C2.41757 12.3103 2.54378 12.6113 2.76627 12.8338C2.98876 13.0563 3.28973 13.1825 3.60437 13.1852C3.919 13.188 4.22213 13.067 4.44845 12.8484L4.80005 12.4968V20.4C4.80005 20.7183 4.92648 21.0235 5.15152 21.2485C5.37656 21.4736 5.68179 21.6 6.00005 21.6H8.40005C8.71831 21.6 9.02353 21.4736 9.24858 21.2485C9.47362 21.0235 9.60005 20.7183 9.60005 20.4V18C9.60005 17.6818 9.72648 17.3765 9.95152 17.1515C10.1766 16.9264 10.4818 16.8 10.8 16.8H13.2C13.5183 16.8 13.8235 16.9264 14.0486 17.1515C14.2736 17.3765 14.4 17.6818 14.4 18V20.4C14.4 20.7183 14.5265 21.0235 14.7515 21.2485C14.9766 21.4736 15.2818 21.6 15.6 21.6H18C18.3183 21.6 18.6235 21.4736 18.8486 21.2485C19.0736 21.0235 19.2001 20.7183 19.2001 20.4V12.4968L19.5516 12.8484C19.778 13.067 20.0811 13.188 20.3957 13.1852C20.7104 13.1825 21.0113 13.0563 21.2338 12.8338C21.4563 12.6113 21.5825 12.3103 21.5853 11.9957C21.588 11.6811 21.467 11.3779 21.2485 11.1516L12.8484 2.75161Z" fill="black"/>
</svg>
