<svg width="24" height="24" viewBox="0 0 24 24" fill="none" xmlns="http://www.w3.org/2000/svg">
<path fill-rule="evenodd" clip-rule="evenodd" d="M6.05997 4.86003C7.63536 3.28464 9.77204 2.3996 12 2.3996C14.2279 2.3996 16.3646 3.28464 17.94 4.86003C19.5154 6.43541 20.4004 8.57209 20.4004 10.8C20.4004 13.028 19.5154 15.1646 17.94 16.74L12 22.68L6.05997 16.74C5.27987 15.96 4.66105 15.034 4.23886 14.0148C3.81667 12.9956 3.59937 11.9032 3.59937 10.8C3.59937 9.69685 3.81667 8.60448 4.23886 7.58529C4.66105 6.5661 5.27987 5.64005 6.05997 4.86003ZM12 13.2C12.6365 13.2 13.2469 12.9472 13.697 12.4971C14.1471 12.047 14.4 11.4365 14.4 10.8C14.4 10.1635 14.1471 9.55306 13.697 9.10297C13.2469 8.65288 12.6365 8.40003 12 8.40003C11.3635 8.40003 10.753 8.65288 10.3029 9.10297C9.85283 9.55306 9.59997 10.1635 9.59997 10.8C9.59997 11.4365 9.85283 12.047 10.3029 12.4971C10.753 12.9472 11.3635 13.2 12 13.2Z" fill="black"/>
</svg>
